<?xml version="1.0" encoding="UTF-8" standalone="no"?>
<!-- Created with Inkscape (http://www.inkscape.org/) -->

<svg
   version="1.1"
   id="svg2"
   width="133.33333"
   height="101.33333"
   viewBox="0 0 133.33333 101.33333"
   xmlns="http://www.w3.org/2000/svg"
   xmlns:svg="http://www.w3.org/2000/svg">
  <defs
     id="defs6">
    <clipPath
       clipPathUnits="userSpaceOnUse"
       id="clipPath16">
      <path
         d="M 0,76 H 100 V 0 H 0 Z"
         id="path14" />
    </clipPath>
  </defs>
  <g
     id="g8"
     transform="matrix(1.3333333,0,0,-1.3333333,0,101.33333)">
    <g
       id="g10">
      <g
         id="g12"
         clip-path="url(#clipPath16)">
        <g
           id="g18"
           transform="translate(35.1533,4.7051)">
          <path
             d="m 0,0 2.281,-4.014 h -3.012 l -2.1,3.65 -2.143,0.045 v -3.65 L -7.576,-4.014 V 9.039 l 5.887,0.045 c 1.094,0 2.038,-0.396 2.83,-1.188 0.76,-0.76 1.14,-1.687 1.14,-2.784 L 2.236,3.606 C 2.236,2.815 2.038,2.101 1.643,1.462 1.216,0.792 0.669,0.304 0,0 M -4.975,6.437 -5.021,2.282 h 3.378 c 0.364,0 0.655,0.138 0.867,0.412 0.274,0.275 0.41,0.564 0.41,0.867 v 1.551 c 0,0.367 -0.121,0.67 -0.365,0.913 -0.274,0.276 -0.592,0.412 -0.958,0.412 h -3.286"
             style="fill:#703b48;fill-opacity:1;fill-rule:nonzero;stroke:none"
             id="path20" />
        </g>
        <g
           id="g22"
           transform="translate(0.9209,0.7012)">
          <path
             d="M 0,0 H 6.116 V 2.647 H 2.557 l 0.045,7.81 h 3.56 l -0.001,2.648 h -6.207 z"
             style="fill:#703b48;fill-opacity:1;fill-rule:nonzero;stroke:none"
             id="path24" />
        </g>
        <g
           id="g26"
           transform="translate(15.9302,3.3486)">
          <path
             d="M 0,0 C 0.357,0 0.66,0.135 0.909,0.396 1.157,0.645 1.281,0.948 1.281,1.305 V 6.476 C 1.281,6.832 1.157,7.143 0.909,7.407 0.66,7.655 0.357,7.778 0,7.778 H -2.678 C -3.036,7.778 -3.347,7.655 -3.61,7.407 -3.857,7.143 -3.983,6.832 -3.983,6.476 V 1.305 c 0,-0.357 0.126,-0.66 0.373,-0.909 C -3.347,0.135 -3.036,0 -2.678,0 H 0 m -0.023,10.436 c 0.543,0 1.056,-0.111 1.536,-0.329 C 1.995,9.906 2.415,9.627 2.771,9.269 3.144,8.896 3.423,8.478 3.61,8.011 3.827,7.531 3.936,7.019 3.936,6.476 V 1.305 c 0,-0.466 -0.079,-0.909 -0.233,-1.327 h 1.63 v -2.61 h -8.011 c -0.528,0 -1.041,0.102 -1.537,0.304 -0.466,0.201 -0.886,0.481 -1.257,0.839 -0.359,0.372 -0.637,0.792 -0.839,1.256 -0.203,0.497 -0.304,1.01 -0.304,1.538 v 5.171 c 0,0.527 0.101,1.039 0.304,1.535 0.202,0.467 0.48,0.885 0.839,1.258 0.371,0.358 0.791,0.637 1.257,0.838 0.496,0.218 1.009,0.329 1.537,0.329 h 2.655"
             style="fill:#703b48;fill-opacity:1;fill-rule:nonzero;stroke:none"
             id="path28" />
        </g>
        <path
           d="M 25.834,13.758 H 23.013 V 0.701 h 2.821 z"
           style="fill:#703b48;fill-opacity:1;fill-rule:nonzero;stroke:none"
           id="path30" />
        <g
           id="g32"
           transform="translate(39.126,0.7168)">
          <path
             d="M 0,0 V 13.067 H 8.197 V 10.41 H 2.841 V 7.941 H 8.197 V 5.125 H 2.841 V 2.609 H 8.197 V 0 Z"
             style="fill:#703b48;fill-opacity:1;fill-rule:nonzero;stroke:none"
             id="path34" />
        </g>
        <path
           d="M 62.308,8.636 H 67.66 V 5.814 h -5.352 z"
           style="fill:#703b48;fill-opacity:1;fill-rule:nonzero;stroke:none"
           id="path36" />
        <g
           id="g38"
           transform="translate(55.498,5.8418)">
          <path
             d="m 0,0 -2.959,-5.125 h -3.516 v 2.632 h 1.794 l 2.071,3.608 -2.421,4.17 h -1.444 v 2.657 h 3.192 L -0.327,2.816 H 0.699 L 3.656,7.942 H 6.822 V 5.285 H 5.38 L 2.958,1.115 5.03,-2.493 H 6.822 V -5.125 H 3.307 L 0.349,0 Z"
             style="fill:#703b48;fill-opacity:1;fill-rule:nonzero;stroke:none"
             id="path40" />
        </g>
        <g
           id="g42"
           transform="translate(92.9629,3.3301)">
          <path
             d="m 0,0 v -2.648 l 6.162,0.044 0.003,13.065 H -0.043 V 7.812 H 3.336 L 3.287,0 Z"
             style="fill:#703b48;fill-opacity:1;fill-rule:nonzero;stroke:none"
             id="path44" />
        </g>
        <g
           id="g46"
           transform="translate(80.9385,0.7393)">
          <path
             d="M 0,0 V 13.053 L 5.795,13.007 C 6.863,13.038 7.789,12.657 8.581,11.865 9.341,11.104 9.72,10.178 9.72,9.082 L 9.77,3.923 C 9.77,2.83 9.371,1.887 8.581,1.095 7.82,0.335 6.891,-0.046 5.795,-0.046 L 0,0 M 2.647,10.406 V 2.646 L 5.795,2.6 c 0.367,0 0.687,0.137 0.96,0.412 0.241,0.242 0.364,0.548 0.364,0.911 L 7.074,9.082 c 0,0.365 -0.121,0.67 -0.366,0.911 -0.275,0.275 -0.577,0.397 -0.913,0.368 l -3.148,0.045"
             style="fill:#703b48;fill-opacity:1;fill-rule:nonzero;stroke:none"
             id="path48" />
        </g>
        <g
           id="g50"
           transform="translate(76.9551,4.707)">
          <path
             d="m 0,0 2.282,-4.016 h -3.011 l -2.1,3.653 -2.147,0.045 v -3.65 l -2.6,-0.046 V 9.039 l 5.888,0.045 c 1.096,0 2.038,-0.396 2.83,-1.188 0.761,-0.76 1.14,-1.687 1.14,-2.783 L 2.237,3.606 C 2.237,2.816 2.04,2.101 1.644,1.463 1.218,0.793 0.67,0.306 0,0 M -4.976,6.438 -5.02,2.284 h 3.377 c 0.367,0 0.655,0.136 0.87,0.41 0.272,0.275 0.408,0.563 0.408,0.867 v 1.552 c 0,0.365 -0.12,0.67 -0.364,0.912 -0.274,0.275 -0.593,0.413 -0.959,0.413 h -3.288"
             style="fill:#703b48;fill-opacity:1;fill-rule:nonzero;stroke:none"
             id="path52" />
        </g>
        <g
           id="g54"
           transform="translate(59.2705,36.9785)">
          <path
             d="m 0,0 c 1.833,1.847 3.237,3.967 4.216,6.358 0.946,2.313 1.421,4.726 1.421,7.243 0,2.516 -0.475,4.929 -1.421,7.241 C 3.253,23.25 1.847,25.377 0,27.225 c -1.848,1.832 -3.975,3.236 -6.383,4.215 -2.311,0.946 -4.725,1.421 -7.241,1.421 -2.515,0 -4.93,-0.475 -7.243,-1.421 -2.391,-0.979 -4.509,-2.383 -6.358,-4.215 L -47.229,7.219 c -1.848,-1.848 -3.26,-3.975 -4.24,-6.381 -0.931,-2.313 -1.397,-4.727 -1.397,-7.242 0,-2.516 0.466,-4.93 1.397,-7.242 0.98,-2.394 2.392,-4.511 4.24,-6.36 l 0.139,-0.14 h -7.126 c -1.584,2.376 -2.725,4.955 -3.425,7.733 -0.683,2.732 -0.891,5.504 -0.628,8.314 0.265,2.826 0.986,5.519 2.166,8.081 1.227,2.655 2.888,5.031 4.984,7.127 l 20.005,20.005 c 2.375,2.36 5.1,4.169 8.175,5.427 2.981,1.21 6.086,1.815 9.315,1.815 3.23,0 6.335,-0.605 9.316,-1.815 3.089,-1.258 5.822,-3.067 8.198,-5.427 2.36,-2.375 4.168,-5.109 5.426,-8.198 1.211,-2.981 1.817,-6.086 1.817,-9.315 0,-3.23 -0.606,-6.334 -1.817,-9.315 C 8.058,1.211 6.25,-1.514 3.89,-3.889 l -7.895,-7.895 8.359,-8.362 h -7.778 l -8.361,8.362 L 0,0"
             style="fill:#703b48;fill-opacity:1;fill-rule:nonzero;stroke:none"
             id="path56" />
        </g>
        <g
           id="g58"
           transform="translate(59.2705,36.9785)">
          <path
             d="m 0,0 c 1.833,1.847 3.237,3.967 4.216,6.358 0.946,2.313 1.421,4.726 1.421,7.243 0,2.516 -0.475,4.929 -1.421,7.241 C 3.253,23.25 1.847,25.377 0,27.225 c -1.848,1.832 -3.975,3.236 -6.383,4.215 -2.311,0.946 -4.725,1.421 -7.241,1.421 -2.515,0 -4.93,-0.475 -7.243,-1.421 -2.391,-0.979 -4.509,-2.383 -6.358,-4.215 L -47.229,7.219 c -1.848,-1.848 -3.26,-3.975 -4.24,-6.381 -0.931,-2.313 -1.397,-4.727 -1.397,-7.242 0,-2.516 0.466,-4.93 1.397,-7.242 0.98,-2.394 2.392,-4.511 4.24,-6.36 l 0.139,-0.14 h -7.126 c -1.584,2.376 -2.725,4.955 -3.425,7.733 -0.683,2.732 -0.891,5.504 -0.628,8.314 0.265,2.826 0.986,5.519 2.166,8.081 1.227,2.655 2.888,5.031 4.984,7.127 l 20.005,20.005 c 2.375,2.36 5.1,4.169 8.175,5.427 2.981,1.21 6.086,1.815 9.315,1.815 3.23,0 6.335,-0.605 9.316,-1.815 3.089,-1.258 5.822,-3.067 8.198,-5.427 2.36,-2.375 4.168,-5.109 5.426,-8.198 1.211,-2.981 1.817,-6.086 1.817,-9.315 0,-3.23 -0.606,-6.334 -1.817,-9.315 C 8.058,1.211 6.25,-1.514 3.89,-3.889 l -7.895,-7.895 8.359,-8.362 h -7.778 l -8.361,8.362 z"
             style="fill:none;stroke:#703b48;stroke-width:0.5;stroke-linecap:round;stroke-linejoin:round;stroke-miterlimit:4;stroke-dasharray:none;stroke-opacity:1"
             id="path60" />
        </g>
        <g
           id="g62"
           transform="translate(55.3818,40.8682)">
          <path
             d="m 0,0 c 1.319,1.319 2.321,2.833 3.004,4.542 0.684,1.66 1.024,3.383 1.024,5.169 0,1.8 -0.34,3.525 -1.024,5.17 -0.683,1.723 -1.685,3.244 -3.004,4.565 -1.319,1.319 -2.843,2.32 -4.564,3.004 -1.647,0.667 -3.37,1.008 -5.171,1.025 -1.786,0 -3.509,-0.342 -5.17,-1.025 -1.709,-0.684 -3.222,-1.685 -4.541,-3.004 L -39.452,-0.56 c -1.319,-1.319 -2.329,-2.841 -3.027,-4.565 -0.668,-1.646 -1.001,-3.367 -1.001,-5.169 0,-1.786 0.333,-3.51 1.001,-5.171 0.698,-1.708 1.708,-3.22 3.027,-4.541 1.304,-1.304 2.803,-2.306 4.495,-3.004 1.631,-0.668 3.33,-1.011 5.1,-1.026 h -13.345 l -0.138,0.14 c -1.848,1.849 -3.261,3.966 -4.24,6.36 -0.932,2.312 -1.398,4.726 -1.398,7.242 0,2.516 0.466,4.93 1.398,7.242 0.979,2.406 2.392,4.533 4.24,6.381 l 20.004,20.006 c 1.848,1.832 3.966,3.236 6.357,4.216 2.313,0.946 4.729,1.42 7.244,1.42 2.515,0 4.929,-0.474 7.241,-1.42 2.408,-0.98 4.535,-2.384 6.383,-4.216 C 5.722,21.487 7.126,19.36 8.104,16.953 9.051,14.641 9.525,12.228 9.525,9.711 9.525,7.195 9.051,4.782 8.104,2.468 7.142,0.077 5.735,-2.043 3.889,-3.89 l -11.785,-11.784 8.361,-8.362 h -7.778 l -8.361,8.362 L 0,0"
             style="fill:#ba31a0;fill-opacity:1;fill-rule:nonzero;stroke:none"
             id="path64" />
        </g>
        <g
           id="g66"
           transform="translate(55.3818,40.8682)">
          <path
             d="m 0,0 c 1.319,1.319 2.321,2.833 3.004,4.542 0.684,1.66 1.024,3.383 1.024,5.169 0,1.8 -0.34,3.525 -1.024,5.17 -0.683,1.723 -1.685,3.244 -3.004,4.565 -1.319,1.319 -2.843,2.32 -4.564,3.004 -1.647,0.667 -3.37,1.008 -5.171,1.025 -1.786,0 -3.509,-0.342 -5.17,-1.025 -1.709,-0.684 -3.222,-1.685 -4.541,-3.004 L -39.452,-0.56 c -1.319,-1.319 -2.329,-2.841 -3.027,-4.565 -0.668,-1.646 -1.001,-3.367 -1.001,-5.169 0,-1.786 0.333,-3.51 1.001,-5.171 0.698,-1.708 1.708,-3.22 3.027,-4.541 1.304,-1.304 2.803,-2.306 4.495,-3.004 1.631,-0.668 3.33,-1.011 5.1,-1.026 h -13.345 l -0.138,0.14 c -1.848,1.849 -3.261,3.966 -4.24,6.36 -0.932,2.312 -1.398,4.726 -1.398,7.242 0,2.516 0.466,4.93 1.398,7.242 0.979,2.406 2.392,4.533 4.24,6.381 l 20.004,20.006 c 1.848,1.832 3.966,3.236 6.357,4.216 2.313,0.946 4.729,1.42 7.244,1.42 2.515,0 4.929,-0.474 7.241,-1.42 2.408,-0.98 4.535,-2.384 6.383,-4.216 C 5.722,21.487 7.126,19.36 8.104,16.953 9.051,14.641 9.525,12.228 9.525,9.711 9.525,7.195 9.051,4.782 8.104,2.468 7.142,0.077 5.735,-2.043 3.889,-3.89 l -11.785,-11.784 8.361,-8.362 h -7.778 l -8.361,8.362 z"
             style="fill:none;stroke:#ba31a0;stroke-width:0.5;stroke-linecap:round;stroke-linejoin:round;stroke-miterlimit:4;stroke-dasharray:none;stroke-opacity:1"
             id="path68" />
        </g>
        <g
           id="g70"
           transform="translate(51.5391,44.7104)">
          <path
             d="m 0,0 c 0.792,0.792 1.391,1.7 1.792,2.724 0.405,0.994 0.606,2.026 0.606,3.098 0,1.071 -0.201,2.104 -0.606,3.097 -0.401,1.04 -1,1.956 -1.792,2.748 -0.792,0.792 -1.708,1.391 -2.749,1.794 -0.978,0.403 -2.01,0.605 -3.097,0.605 -1.071,0 -2.103,-0.202 -3.097,-0.605 -1.025,-0.403 -1.933,-1.002 -2.724,-1.794 L -31.673,-8.337 c -0.792,-0.793 -1.398,-1.708 -1.816,-2.748 -0.404,-0.979 -0.607,-2.011 -0.607,-3.098 0,-1.07 0.203,-2.104 0.607,-3.097 0.418,-1.024 1.024,-1.934 1.816,-2.725 0.791,-0.792 1.699,-1.398 2.725,-1.818 0.993,-0.402 2.026,-0.604 3.097,-0.604 1.086,0 2.127,0.202 3.121,0.604 1.024,0.42 1.933,1.026 2.725,1.818 L 0,0 m -11.831,-19.516 8.36,-8.362 h -7.778 l -4.471,4.473 -0.442,-0.443 c -1.32,-1.319 -2.842,-2.329 -4.565,-3.027 -1.646,-0.669 -3.37,-1.003 -5.171,-1.003 -1.785,0 -3.509,0.334 -5.17,1.003 -1.708,0.698 -3.221,1.708 -4.541,3.027 -1.319,1.321 -2.329,2.833 -3.027,4.541 -0.668,1.661 -1.002,3.385 -1.002,5.171 0,1.802 0.334,3.523 1.002,5.169 0.698,1.724 1.708,3.245 3.027,4.565 l 20.005,20.006 c 1.319,1.319 2.833,2.32 4.541,3.003 1.662,0.668 3.385,1.009 5.171,1.026 1.801,0 3.524,-0.342 5.17,-1.026 C 1,17.924 2.523,16.923 3.843,15.604 5.162,14.283 6.164,12.762 6.847,11.039 7.53,9.394 7.871,7.669 7.871,5.869 7.871,4.083 7.53,2.36 6.847,0.699 6.164,-1.009 5.162,-2.523 3.843,-3.842 l -15.674,-15.674"
             style="fill:#4ebef5;fill-opacity:1;fill-rule:nonzero;stroke:none"
             id="path72" />
        </g>
        <g
           id="g74"
           transform="translate(51.5391,44.7104)">
          <path
             d="m 0,0 c 0.792,0.792 1.391,1.7 1.792,2.724 0.405,0.994 0.606,2.026 0.606,3.098 0,1.071 -0.201,2.104 -0.606,3.097 -0.401,1.04 -1,1.956 -1.792,2.748 -0.792,0.792 -1.708,1.391 -2.749,1.794 -0.978,0.403 -2.01,0.605 -3.097,0.605 -1.071,0 -2.103,-0.202 -3.097,-0.605 -1.025,-0.403 -1.933,-1.002 -2.724,-1.794 L -31.673,-8.337 c -0.792,-0.793 -1.398,-1.708 -1.816,-2.748 -0.404,-0.979 -0.607,-2.011 -0.607,-3.098 0,-1.07 0.203,-2.104 0.607,-3.097 0.418,-1.024 1.024,-1.934 1.816,-2.725 0.791,-0.792 1.699,-1.398 2.725,-1.818 0.993,-0.402 2.026,-0.604 3.097,-0.604 1.086,0 2.127,0.202 3.121,0.604 1.024,0.42 1.933,1.026 2.725,1.818 z m -11.831,-19.516 8.36,-8.362 h -7.778 l -4.471,4.473 -0.442,-0.443 c -1.32,-1.319 -2.842,-2.329 -4.565,-3.027 -1.646,-0.669 -3.37,-1.003 -5.171,-1.003 -1.785,0 -3.509,0.334 -5.17,1.003 -1.708,0.698 -3.221,1.708 -4.541,3.027 -1.319,1.321 -2.329,2.833 -3.027,4.541 -0.668,1.661 -1.002,3.385 -1.002,5.171 0,1.802 0.334,3.523 1.002,5.169 0.698,1.724 1.708,3.245 3.027,4.565 l 20.005,20.006 c 1.319,1.319 2.833,2.32 4.541,3.003 1.662,0.668 3.385,1.009 5.171,1.026 1.801,0 3.524,-0.342 5.17,-1.026 C 1,17.924 2.523,16.923 3.843,15.604 5.162,14.283 6.164,12.762 6.847,11.039 7.53,9.394 7.871,7.669 7.871,5.869 7.871,4.083 7.53,2.36 6.847,0.699 6.164,-1.009 5.162,-2.523 3.843,-3.842 l -15.674,-15.674"
             style="fill:none;stroke:#4ebef5;stroke-width:0.5;stroke-linecap:round;stroke-linejoin:round;stroke-miterlimit:4;stroke-dasharray:none;stroke-opacity:1"
             id="path76" />
        </g>
      </g>
    </g>
  </g>
</svg>
